<svg width="28" height="22" viewBox="0 0 28 22" fill="none" xmlns="http://www.w3.org/2000/svg">
<path d="M26.4759 5.9176C26.4759 4.20331 25.2428 2.97133 23.527 2.97133C21.7954 2.97133 20.0638 2.97133 18.3323 2.97133H18.0804C18.0594 2.92415 18.0437 2.8927 18.0332 2.856C17.7813 1.99099 17.1621 1.52441 16.2648 1.52441C14.7379 1.52441 13.2162 1.52441 11.6893 1.52441C10.855 1.52441 10.2095 2.02245 9.97867 2.8193C9.96293 2.86648 9.94719 2.91367 9.9262 2.96609H9.66384C7.9375 2.96609 6.21641 2.96609 4.49007 2.96609C4.30642 2.96609 4.11752 2.96609 3.93387 2.99755C2.50137 3.24394 1.52539 4.40253 1.52539 5.85469C1.52539 9.73411 1.52539 13.6188 1.52539 17.4982C1.52539 19.2335 2.75849 20.4654 4.50057 20.4654C10.834 20.4654 17.1674 20.4654 23.5008 20.4654C25.2271 20.4654 26.4707 19.2335 26.4707 17.5087C26.4707 13.6397 26.4707 9.77605 26.4707 5.90711L26.4759 5.9176ZM13.998 16.4916C11.3587 16.4916 9.21782 14.3527 9.21782 11.721C9.21782 9.08929 11.3639 6.95036 13.998 6.95036C16.6374 6.95036 18.7783 9.08929 18.7783 11.721C18.7783 14.358 16.6374 16.4916 13.998 16.4916V16.4916Z" stroke="#201F1E" stroke-opacity="0.2" stroke-width="2" stroke-miterlimit="10" stroke-linejoin="round"/>
</svg>
