<svg width="14" height="14" viewBox="0 0 14 14" fill="none" xmlns="http://www.w3.org/2000/svg">
<path d="M6.02458 12.6818C6.25939 13.7213 7.74061 13.7213 7.97542 12.6818L8.14971 11.9102C8.3019 11.2365 9.07505 10.9162 9.65906 11.285L10.3279 11.7073C11.229 12.2764 12.2764 11.229 11.7073 10.3279L11.285 9.65906C10.9162 9.07505 11.2365 8.3019 11.9102 8.14971L12.6818 7.97542C13.7213 7.74061 13.7213 6.25939 12.6818 6.02458L11.9102 5.85029C11.2365 5.6981 10.9162 4.92495 11.285 4.34094L11.7073 3.67212C12.2764 2.771 11.229 1.72363 10.3279 2.29266L9.65906 2.715C9.07505 3.08379 8.3019 2.76354 8.14971 2.08981L7.97542 1.31824C7.74061 0.27869 6.25939 0.278688 6.02458 1.31824L5.85029 2.08981C5.6981 2.76354 4.92495 3.08379 4.34094 2.715L3.67212 2.29266C2.771 1.72363 1.72363 2.771 2.29266 3.67212L2.715 4.34094C3.08379 4.92495 2.76354 5.6981 2.08981 5.85029L1.31824 6.02458C0.278689 6.25939 0.278688 7.74061 1.31824 7.97542L2.08981 8.14971C2.76354 8.3019 3.08379 9.07505 2.715 9.65906L2.29266 10.3279C1.72363 11.229 2.771 12.2764 3.67212 11.7073L4.34094 11.285C4.92495 10.9162 5.6981 11.2365 5.85029 11.9102L6.02458 12.6818Z" fill="#201F1E"/>
</svg>