<svg version="1.1" id="Layer_1" xmlns="http://www.w3.org/2000/svg" x="0" y="0" viewBox="0 0 426 139.46" style="enable-background:new 0 0 426 139.46" xml:space="preserve"><style>.st0{display:none}.st3{display:inline}.st4,.st5{fill-rule:evenodd;clip-rule:evenodd}.st5{fill:#fff}.st7{fill:#010202}</style><path class="st5" d="M356.27 1.5H69.73C32.05 1.5 1.5 32.05 1.5 69.73s30.55 68.23 68.23 68.23h286.55c37.68 0 68.23-30.55 68.23-68.23S393.95 1.5 356.27 1.5z"/><path d="M356.27 139.46H69.73C31.28 139.46 0 108.18 0 69.73S31.28 0 69.73 0h286.54C394.72 0 426 31.28 426 69.73s-31.28 69.73-69.73 69.73zM69.73 3C32.93 3 3 32.93 3 69.73c0 36.79 29.93 66.73 66.73 66.73h286.54c36.79 0 66.73-29.93 66.73-66.73C423 32.93 393.07 3 356.27 3H69.73z" style="fill:#050504"/><path class="st4" d="M147.32 119.95h-.1c-14.94-.02-27.7-5.02-36.9-14.44-8.84-9.07-13.7-21.86-13.68-36.03.02-15.92 5.84-29.11 16.83-38.13 9.39-7.71 21.96-11.95 35.41-11.95h.09c27.53.04 39.05 17.73 43.47 28.27l.43 1.03-6.06 3.71c-5.53 3.39-10.01 6.14-15.82 9.61l26.95.04v2.25c.59 17.54-4.25 32.04-13.99 41.95-8.8 8.95-21.47 13.69-36.63 13.69zm1.57-97.94c-12.83 0-24.8 4.03-33.71 11.34-10.36 8.51-15.85 21-15.88 36.13-.02 13.49 4.57 25.63 12.94 34.21 8.68 8.9 20.78 13.62 34.99 13.64h.11c14.63 0 26.31-4.34 34.73-12.9 9.18-9.34 13.76-23.08 13.25-39.77l-50.79-.08-.03 17.5 23.63.03-.18 1.46c-1.08 8.86-8.25 13.94-19.66 13.94h-.06c-15.39-.02-24.57-10.22-24.55-27.28.02-11.87 4.53-18.61 8.31-22.17 4.15-3.91 9.86-6.24 15.28-6.24h.03c11.34.02 20.23 9.18 22.06 18.11 5.93-3.53 10.45-6.31 16.05-9.74l4.14-2.54c-4.47-10.02-15.46-25.59-40.58-25.63h-.08zm-1.62 22.43c-4.75 0-9.77 2.06-13.44 5.52-4.89 4.6-7.48 11.62-7.49 20.29-.02 15.42 8.16 24.64 21.89 24.66h.05c9.39 0 15.28-3.6 16.77-10.18l-23.22-.04.03-22.73 25.13.04c-.78-8.33-9-17.55-19.69-17.56h-.03z"/><path class="st5" d="M148.89 22.01c-12.83 0-24.8 4.03-33.71 11.34-10.36 8.51-15.85 21-15.88 36.13-.02 13.49 4.57 25.63 12.94 34.21 8.68 8.9 20.78 13.62 34.99 13.64h.11c14.63 0 26.31-4.34 34.73-12.9 9.18-9.34 13.76-23.08 13.25-39.77l-50.79-.08-.03 17.5 23.63.03-.18 1.46c-1.08 8.86-8.25 13.94-19.66 13.94h-.06c-15.39-.02-24.57-10.22-24.55-27.28.02-11.87 4.53-18.61 8.31-22.17 4.15-3.91 9.86-6.24 15.28-6.24h.03c11.34.02 20.23 9.18 22.06 18.11 5.93-3.53 10.45-6.31 16.05-9.74l4.14-2.54c-4.47-10.02-15.46-25.59-40.58-25.63h-.08z"/><path class="st4" d="M136.63 119.95h-.1c-14.94-.02-27.7-5.02-36.9-14.44-8.84-9.07-13.7-21.86-13.68-36.03.02-15.92 5.84-29.11 16.83-38.13 9.39-7.71 21.96-11.95 35.41-11.95h.09c27.53.04 39.05 17.73 43.47 28.27l.43 1.03-6.06 3.71c-5.53 3.39-10.01 6.14-15.82 9.61l26.95.04v2.25c.59 17.54-4.25 32.04-13.99 41.95-8.81 8.95-21.47 13.69-36.63 13.69zm1.56-97.94c-12.83 0-24.8 4.03-33.71 11.34-10.36 8.51-15.85 21-15.88 36.13-.02 13.49 4.57 25.63 12.94 34.21 8.68 8.9 20.78 13.62 34.99 13.64h.11c14.63 0 26.31-4.34 34.73-12.9 9.18-9.34 13.76-23.08 13.25-39.77l-50.79-.08-.03 17.5 23.63.03-.18 1.46c-1.08 8.86-8.25 13.94-19.66 13.94h-.06c-15.39-.02-24.57-10.22-24.55-27.28.02-11.87 4.53-18.61 8.31-22.17 4.15-3.91 9.86-6.24 15.28-6.24h.03c11.34.02 20.23 9.18 22.06 18.11 5.93-3.53 10.45-6.31 16.05-9.74l4.14-2.54c-4.47-10.02-15.46-25.59-40.58-25.63h-.08zm-1.61 22.43c-4.75 0-9.77 2.06-13.44 5.52-4.89 4.6-7.48 11.62-7.49 20.29-.02 15.42 8.16 24.64 21.89 24.66h.05c9.39 0 15.28-3.6 16.77-10.18l-23.22-.04.03-22.73 25.13.04c-.78-8.33-9-17.55-19.69-17.56h-.03z"/><path class="st5" d="M138.19 22.01c-12.83 0-24.8 4.03-33.71 11.34-10.36 8.51-15.85 21-15.88 36.13-.02 13.49 4.57 25.63 12.94 34.21 8.68 8.9 20.78 13.62 34.99 13.64h.11c14.63 0 26.31-4.34 34.73-12.9 9.18-9.34 13.76-23.08 13.25-39.77l-50.79-.08-.03 17.5 23.63.03-.18 1.46c-1.08 8.86-8.25 13.94-19.66 13.94h-.06c-15.39-.02-24.57-10.22-24.55-27.28.02-11.87 4.53-18.61 8.31-22.17 4.15-3.91 9.86-6.24 15.28-6.24h.03c11.34.02 20.23 9.18 22.06 18.11 5.93-3.53 10.45-6.31 16.05-9.74l4.14-2.54c-4.47-10.02-15.46-25.59-40.58-25.63h-.08z"/><path class="st4" d="M125.93 119.95h-.1c-14.94-.02-27.7-5.02-36.9-14.44-8.84-9.07-13.7-21.86-13.68-36.03.02-15.92 5.84-29.11 16.83-38.13 9.39-7.71 21.96-11.95 35.41-11.95h.09c27.53.04 39.05 17.73 43.47 28.27l.43 1.03-6.06 3.71c-5.53 3.39-10.01 6.14-15.82 9.61l26.95.04v2.25c.59 17.54-4.25 32.04-13.99 41.95-8.8 8.95-21.47 13.69-36.63 13.69zm1.57-97.94c-12.83 0-24.8 4.03-33.71 11.34-10.36 8.51-15.85 21-15.88 36.13-.02 13.49 4.57 25.63 12.94 34.21 8.68 8.9 20.78 13.62 34.99 13.64h.11c14.63 0 26.31-4.34 34.73-12.9 9.18-9.34 13.76-23.08 13.25-39.77l-50.79-.08-.03 17.5 23.63.03-.18 1.46c-1.08 8.86-8.25 13.94-19.66 13.94h-.06c-15.39-.02-24.57-10.22-24.55-27.28.02-11.87 4.53-18.61 8.31-22.17 4.15-3.91 9.86-6.24 15.28-6.24h.03c11.34.02 20.23 9.18 22.06 18.11 5.93-3.53 10.45-6.31 16.05-9.74l4.14-2.54c-4.47-10.02-15.46-25.59-40.58-25.63h-.08zm-1.61 22.43c-4.75 0-9.77 2.06-13.44 5.52-4.89 4.6-7.48 11.62-7.49 20.29-.02 15.42 8.16 24.64 21.89 24.66h.05c9.39 0 15.28-3.6 16.77-10.18l-23.22-.04.03-22.73 25.12.04c-.78-8.33-9-17.55-19.69-17.56h-.02z"/><path class="st5" d="M127.5 22.01c-12.83 0-24.8 4.03-33.71 11.34-10.36 8.51-15.85 21-15.88 36.13-.02 13.49 4.57 25.63 12.94 34.21 8.68 8.9 20.78 13.62 34.99 13.64h.11c14.63 0 26.31-4.34 34.73-12.9 9.18-9.34 13.76-23.08 13.25-39.77l-50.79-.08-.03 17.5 23.63.03-.18 1.46c-1.08 8.86-8.25 13.94-19.66 13.94h-.06c-15.39-.02-24.57-10.22-24.55-27.28.02-11.87 4.53-18.61 8.31-22.17 4.15-3.91 9.86-6.24 15.28-6.24h.03c11.34.02 20.23 9.18 22.06 18.11 5.93-3.53 10.45-6.31 16.05-9.74l4.14-2.54c-4.47-10.02-15.46-25.59-40.58-25.63h-.08z"/><path class="st4" d="M115.24 119.95h-.1c-14.94-.02-27.7-5.02-36.9-14.44-8.84-9.07-13.7-21.86-13.68-36.03.02-15.92 5.84-29.11 16.83-38.13 9.39-7.71 21.96-11.95 35.41-11.95h.09c27.53.04 39.05 17.73 43.47 28.27l.43 1.03-6.06 3.71c-5.53 3.39-10.01 6.14-15.82 9.61l26.95.04v2.25c.59 17.54-4.25 32.04-13.99 41.95-8.8 8.95-21.47 13.69-36.63 13.69zm1.56-97.94c-12.83 0-24.8 4.03-33.71 11.34-10.36 8.51-15.85 21-15.88 36.13-.02 13.49 4.57 25.63 12.94 34.21 8.68 8.9 20.78 13.62 34.99 13.64h.11c14.63 0 26.31-4.34 34.73-12.9 9.18-9.34 13.76-23.08 13.25-39.77l-50.79-.08-.03 17.5 23.63.03-.18 1.46c-1.08 8.86-8.25 13.94-19.66 13.94h-.06C100.75 97.5 91.58 87.3 91.6 70.24c.02-11.87 4.53-18.61 8.31-22.17 4.15-3.91 9.86-6.24 15.28-6.24h.03c11.34.02 20.23 9.18 22.06 18.11 5.93-3.53 10.45-6.31 16.05-9.74l4.14-2.54c-4.47-10.02-15.46-25.59-40.58-25.63h-.09zm-1.61 22.43c-4.75 0-9.77 2.06-13.44 5.52-4.89 4.6-7.48 11.62-7.49 20.29-.02 15.42 8.16 24.64 21.89 24.66h.05c9.39 0 15.28-3.6 16.77-10.18l-23.22-.04.03-22.73 25.13.04c-.78-8.33-9-17.55-19.69-17.56h-.03z"/><path class="st5" d="M116.8 22.01c-12.83 0-24.8 4.03-33.71 11.34-10.36 8.51-15.85 21-15.88 36.13-.02 13.49 4.57 25.63 12.94 34.21 8.68 8.9 20.78 13.62 34.99 13.64h.11c14.63 0 26.31-4.34 34.73-12.9 9.18-9.34 13.76-23.08 13.25-39.77l-50.79-.08-.03 17.5 23.63.03-.18 1.46c-1.08 8.86-8.25 13.94-19.66 13.94h-.06C100.75 97.5 91.58 87.3 91.6 70.24c.02-11.87 4.53-18.61 8.31-22.17 4.15-3.91 9.86-6.24 15.28-6.24h.03c11.34.02 20.23 9.18 22.06 18.11 5.93-3.53 10.45-6.31 16.05-9.74l4.14-2.54c-4.47-10.02-15.46-25.59-40.58-25.63h-.09z"/><path class="st4" d="M104.55 119.95h-.1c-14.94-.02-27.7-5.02-36.9-14.44-8.84-9.07-13.7-21.86-13.68-36.03.02-15.92 5.84-29.11 16.83-38.13 9.39-7.71 21.96-11.95 35.41-11.95h.09c27.53.04 39.05 17.73 43.47 28.27l.43 1.03-6.06 3.71c-5.53 3.39-10.01 6.14-15.82 9.61l26.95.04v2.25c.59 17.54-4.25 32.04-13.99 41.95-8.81 8.95-21.47 13.69-36.63 13.69zm1.56-97.94c-12.83 0-24.8 4.03-33.71 11.34-10.36 8.51-15.85 21-15.88 36.13-.02 13.49 4.57 25.63 12.94 34.21 8.68 8.9 20.78 13.62 34.99 13.64h.11c14.63 0 26.31-4.34 34.73-12.9 9.18-9.34 13.76-23.08 13.25-39.77l-50.79-.08-.03 17.5 23.63.03-.18 1.46c-1.08 8.86-8.25 13.94-19.66 13.94h-.06C90.06 97.5 80.88 87.3 80.91 70.24c.02-11.87 4.53-18.61 8.31-22.17 4.15-3.91 9.86-6.24 15.28-6.24h.03c11.34.02 20.23 9.18 22.06 18.11 5.93-3.53 10.45-6.31 16.05-9.74l4.14-2.54c-4.47-10.02-15.46-25.59-40.58-25.63h-.09zm-1.61 22.43c-4.75 0-9.77 2.06-13.44 5.52-4.89 4.6-7.48 11.62-7.49 20.29-.02 15.42 8.16 24.64 21.89 24.66h.05c9.39 0 15.28-3.6 16.77-10.18l-23.22-.04.03-22.73 25.13.04c-.78-8.33-9-17.55-19.69-17.56h-.03z"/><path class="st5" d="M106.11 22.01c-12.83 0-24.8 4.03-33.71 11.34-10.36 8.51-15.85 21-15.88 36.13-.02 13.49 4.57 25.63 12.94 34.21 8.68 8.9 20.78 13.62 34.99 13.64h.11c14.63 0 26.31-4.34 34.73-12.9 9.18-9.34 13.76-23.08 13.25-39.77l-50.79-.08-.03 17.5 23.63.03-.18 1.46c-1.08 8.86-8.25 13.94-19.66 13.94h-.06C90.06 97.5 80.88 87.3 80.91 70.24c.02-11.87 4.53-18.61 8.31-22.17 4.15-3.91 9.86-6.24 15.28-6.24h.03c11.34.02 20.23 9.18 22.06 18.11 5.93-3.53 10.45-6.31 16.05-9.74l4.14-2.54c-4.47-10.02-15.46-25.59-40.58-25.63h-.09z"/><path class="st4" d="M93.85 119.95h-.1c-14.94-.02-27.7-5.02-36.9-14.44-8.84-9.07-13.7-21.86-13.68-36.03.03-15.93 5.85-29.11 16.83-38.14 9.39-7.71 21.96-11.95 35.41-11.95h.09c27.53.04 39.05 17.73 43.47 28.27l.43 1.03-6.06 3.71c-5.53 3.39-10.01 6.14-15.82 9.61l26.95.04v2.25c.59 17.54-4.25 32.04-13.99 41.95-8.8 8.96-21.47 13.7-36.63 13.7zm1.57-97.94c-12.83 0-24.8 4.03-33.71 11.34-10.36 8.51-15.85 21-15.88 36.13-.02 13.49 4.57 25.63 12.94 34.21 8.68 8.9 20.78 13.62 34.99 13.64h.11c14.63 0 26.31-4.34 34.73-12.9 9.18-9.34 13.76-23.08 13.25-39.77l-50.79-.08-.03 17.5 23.63.03-.18 1.46c-1.08 8.86-8.25 13.94-19.66 13.94h-.06c-15.4-.01-24.57-10.21-24.55-27.27.02-11.87 4.53-18.61 8.31-22.17 4.15-3.91 9.86-6.24 15.28-6.24h.03c11.34.02 20.23 9.18 22.06 18.11 5.93-3.53 10.45-6.31 16.05-9.74l4.14-2.54c-4.47-10.02-15.46-25.59-40.58-25.63h-.08zM93.8 44.44c-4.75 0-9.77 2.06-13.44 5.52-4.89 4.6-7.48 11.62-7.49 20.29-.02 15.42 8.16 24.64 21.89 24.66h.05c9.39 0 15.28-3.6 16.77-10.18l-23.22-.04.03-22.73 25.13.04c-.78-8.33-9-17.55-19.69-17.56h-.03z"/><path class="st5" d="M95.42 22.01c-12.83 0-24.8 4.03-33.71 11.34-10.36 8.51-15.85 21-15.88 36.13-.02 13.49 4.57 25.63 12.94 34.21 8.68 8.9 20.78 13.62 34.99 13.64h.11c14.63 0 26.31-4.34 34.73-12.9 9.18-9.34 13.76-23.08 13.25-39.77l-50.79-.08-.03 17.5 23.63.03-.18 1.46c-1.08 8.86-8.25 13.94-19.66 13.94h-.06c-15.4-.01-24.57-10.21-24.55-27.27.02-11.87 4.53-18.61 8.31-22.17 4.15-3.91 9.86-6.24 15.28-6.24h.03c11.34.02 20.23 9.18 22.06 18.11 5.93-3.53 10.45-6.31 16.05-9.74l4.14-2.54c-4.47-10.02-15.46-25.59-40.58-25.63h-.08z"/><path class="st4" d="M83.16 119.95h-.1c-14.94-.02-27.7-5.02-36.9-14.44-8.84-9.07-13.7-21.86-13.68-36.03.02-15.92 5.84-29.11 16.83-38.13C58.7 23.64 71.27 19.4 84.72 19.4h.09c27.53.04 39.05 17.73 43.47 28.27l.43 1.03-6.06 3.71c-5.53 3.39-10.01 6.14-15.82 9.61l26.95.04v2.25c.59 17.54-4.25 32.04-13.99 41.95-8.8 8.95-21.47 13.69-36.63 13.69zm1.56-97.94c-12.83 0-24.8 4.03-33.71 11.34-10.36 8.51-15.85 21-15.88 36.13-.02 13.49 4.57 25.63 12.94 34.21 8.68 8.9 20.78 13.62 34.99 13.64h.11c14.63 0 26.31-4.34 34.73-12.9 9.18-9.34 13.76-23.08 13.25-39.77l-50.79-.08-.03 17.5 23.63.03-.18 1.46c-1.08 8.86-8.25 13.94-19.66 13.94h-.06C68.67 97.5 59.49 87.3 59.52 70.24c.02-11.87 4.53-18.61 8.31-22.17 4.15-3.91 9.86-6.24 15.28-6.24h.03c11.34.02 20.23 9.18 22.06 18.11 5.93-3.53 10.45-6.31 16.05-9.74l4.14-2.54c-4.47-10.02-15.46-25.59-40.58-25.63h-.09zm-1.61 22.43c-4.75 0-9.77 2.06-13.44 5.52-4.89 4.6-7.48 11.62-7.49 20.29-.02 15.42 8.16 24.64 21.89 24.66h.05c9.39 0 15.28-3.6 16.77-10.18l-23.22-.04.03-22.73 25.13.04c-.78-8.33-9-17.55-19.69-17.56h-.03z"/><path class="st5" d="M84.72 22.01c-12.83 0-24.8 4.03-33.71 11.34-10.36 8.51-15.85 21-15.88 36.13-.02 13.49 4.57 25.63 12.94 34.21 8.68 8.9 20.78 13.62 34.99 13.64h.11c14.63 0 26.31-4.34 34.73-12.9 9.18-9.34 13.76-23.08 13.25-39.77l-50.79-.08-.03 17.5 23.63.03-.18 1.46c-1.08 8.86-8.25 13.94-19.66 13.94h-.06C68.67 97.5 59.49 87.3 59.52 70.24c.02-11.87 4.53-18.61 8.31-22.17 4.15-3.91 9.86-6.24 15.28-6.24h.03c11.34.02 20.23 9.18 22.06 18.11 5.93-3.53 10.45-6.31 16.05-9.74l4.14-2.54c-4.47-10.02-15.46-25.59-40.58-25.63h-.09z"/><path class="st4" d="M72.46 119.95h-.1c-14.94-.02-27.7-5.02-36.9-14.44-8.84-9.07-13.7-21.86-13.68-36.03.02-15.92 5.84-29.11 16.83-38.13C48 23.64 60.58 19.39 74.03 19.39h.09c27.53.04 39.05 17.73 43.47 28.27l.43 1.03-6.06 3.71c-5.53 3.39-10.01 6.14-15.82 9.61l26.95.04v2.25c.59 17.54-4.25 32.04-13.99 41.95-8.81 8.96-21.48 13.7-36.64 13.7zm1.57-97.94c-12.83 0-24.8 4.03-33.71 11.34-10.36 8.51-15.85 21-15.88 36.13-.02 13.49 4.57 25.63 12.94 34.21 8.68 8.9 20.78 13.62 34.99 13.64h.11c14.63 0 26.31-4.34 34.73-12.9 9.18-9.34 13.76-23.08 13.25-39.77l-50.79-.08-.03 17.5 23.63.03-.18 1.46C92 92.44 84.84 97.52 73.43 97.52h-.06C57.98 97.5 48.8 87.3 48.83 70.24c.02-11.87 4.53-18.61 8.31-22.17 4.15-3.91 9.86-6.24 15.28-6.24h.03c11.33.01 20.23 9.17 22.05 18.1 5.93-3.53 10.45-6.31 16.05-9.74l4.14-2.54c-4.47-10.02-15.46-25.59-40.58-25.63h-.08zm-1.61 22.43c-4.75 0-9.77 2.06-13.44 5.52-4.89 4.6-7.48 11.62-7.49 20.29-.02 15.42 8.16 24.64 21.89 24.66h.05c9.39 0 15.28-3.6 16.77-10.18l-23.22-.04.03-22.73 25.12.04c-.78-8.33-9-17.55-19.69-17.56h-.02z"/><path class="st5" d="M74.03 22.01c-12.83 0-24.8 4.03-33.71 11.34-10.36 8.51-15.85 21-15.88 36.13-.02 13.49 4.57 25.63 12.94 34.21 8.68 8.9 20.78 13.62 34.99 13.64h.11c14.63 0 26.31-4.34 34.73-12.9 9.18-9.34 13.76-23.08 13.25-39.77l-50.79-.08-.03 17.5 23.63.03-.18 1.46C92 92.44 84.84 97.52 73.43 97.52h-.06C57.98 97.5 48.8 87.3 48.83 70.24c.02-11.87 4.53-18.61 8.31-22.17 4.15-3.91 9.86-6.24 15.28-6.24h.03c11.33.01 20.23 9.17 22.05 18.1 5.93-3.53 10.45-6.31 16.05-9.74l4.14-2.54c-4.47-10.02-15.46-25.59-40.58-25.63h-.08z"/><path class="st7" d="M219.19 27.17v5.29h8.82v3.5h-8.82v12.21h-3.92v-24.5h13.68v3.5h-9.76zM248.14 44.67v3.5h-14.38v-24.5h13.68v3.5h-9.76v5.71h8.82v3.5h-8.82v8.29h10.46zM252.86 46.51c-1.37-1.29-2.09-3.17-2.19-5.62h3.67c.12 1.33.54 2.36 1.26 3.08.72.72 1.71 1.08 2.98 1.08 1.17 0 2.12-.29 2.87-.88.75-.58 1.12-1.45 1.12-2.59 0-1.03-.42-1.88-1.26-2.55s-2.23-1.39-4.17-2.14c-3.92-1.54-5.88-3.91-5.88-7.1 0-1.98.69-3.55 2.08-4.69 1.39-1.14 3.16-1.71 5.3-1.71 2.33 0 4.15.61 5.46 1.82 1.31 1.21 1.97 2.82 2 4.83h-3.75c0-.98-.33-1.79-1-2.42s-1.59-.95-2.78-.95c-1.05 0-1.91.27-2.59.82-.68.55-1.01 1.28-1.01 2.19 0 .89.33 1.67.98 2.35.65.68 1.81 1.35 3.46 2.03 1.68.68 3.01 1.35 3.99 2.01.98.66 1.71 1.44 2.19 2.33.48.89.72 1.95.72 3.19 0 1.33-.33 2.51-.98 3.55-.65 1.04-1.56 1.85-2.73 2.43-1.17.58-2.51.88-4.02.88-2.45 0-4.35-.65-5.72-1.94zM285.46 27.17h-6.3v21h-3.92v-21h-6.26v-3.5h16.48v3.5zM295.89 26.89v18.06h3.36v3.22h-10.61v-3.22h3.33V26.89h-3.33v-3.22h10.61v3.22h-3.36zM302.45 23.67h4.09l4.58 17.88.46 2.62h.14l.46-2.62 4.62-17.88h4.1l-6.62 24.5h-5.25l-6.58-24.5zM332.3 43.52h-7.84l-1.16 4.65h-3.96l6.44-24.5h5.18l6.48 24.5h-3.96l-1.18-4.65zm-.81-3.26-2.59-10.19-.46-2.55h-.14l-.46 2.55-2.55 10.19h6.2zM355.84 44.67v3.5h-14.81v-24.5h3.92v21h10.89zM217.76 80.16c-1.28-.86-2.31-2.23-3.08-4.11-.77-1.88-1.15-4.25-1.15-7.12s.38-5.24 1.15-7.12c.77-1.88 1.8-3.25 3.08-4.11a7.504 7.504 0 0 1 4.27-1.29c1.56 0 2.99.43 4.27 1.29 1.28.86 2.31 2.23 3.08 4.11.77 1.88 1.16 4.25 1.16 7.12s-.38 5.24-1.16 7.12c-.77 1.88-1.8 3.25-3.08 4.11a7.504 7.504 0 0 1-4.27 1.29c-1.56 0-2.99-.43-4.27-1.29zm8.85-11.24c0-6.02-1.53-9.03-4.58-9.03-3.06 0-4.58 3.01-4.58 9.03s1.53 9.03 4.58 9.03c3.06 0 4.58-3.01 4.58-9.03zM237.92 60.17v5.29h8.82v3.5h-8.82v12.21H234v-24.5h13.68v3.5h-9.76zM267.69 80.16c-1.31-.86-2.36-2.23-3.15-4.11-.79-1.88-1.19-4.25-1.19-7.12 0-2.85.44-5.21 1.33-7.09.89-1.88 2.03-3.25 3.43-4.13 1.4-.88 2.89-1.31 4.48-1.31 2.24 0 4.04.71 5.41 2.12 1.36 1.41 2.11 3.48 2.22 6.21h-3.88c-.05-1.63-.43-2.85-1.14-3.64s-1.62-1.19-2.71-1.19c-1.45 0-2.68.7-3.69 2.1-1.02 1.4-1.52 3.71-1.52 6.93s.48 5.53 1.43 6.93c.96 1.4 2.12 2.1 3.5 2.1 2.87 0 4.43-2.09 4.69-6.26h3.85c-.19 3.24-1.08 5.68-2.68 7.31s-3.6 2.45-6 2.45c-1.62-.01-3.08-.44-4.38-1.3zM298.16 67.07c-.67 1.03-1.6 1.77-2.82 2.24l3.39 11.87h-4.06l-3.22-11.34h-4.41v11.34h-3.92v-24.5h9.24c2.1 0 3.76.58 4.97 1.73 1.21 1.16 1.82 2.77 1.82 4.85 0 1.51-.33 2.78-.99 3.81zm-11.01-.67h5.04c.98 0 1.73-.28 2.26-.84s.79-1.33.79-2.31-.26-1.75-.79-2.31-1.28-.84-2.26-.84h-5.04v6.3zM317.04 77.67v3.5h-14.38v-24.5h13.68v3.5h-9.76v5.71h8.82v3.5h-8.82v8.29h10.46zM332.3 76.52h-7.84l-1.16 4.65h-3.96l6.44-24.5h5.18l6.48 24.5h-3.96l-1.18-4.65zm-.81-3.26-2.59-10.19-.46-2.55h-.14l-.46 2.55-2.55 10.19h6.2zM353.36 60.17h-6.3v21h-3.92v-21h-6.26v-3.5h16.48v3.5zM362.79 59.89v18.06h3.36v3.22h-10.61v-3.22h3.33V59.89h-3.33v-3.22h10.61v3.22h-3.36zM369.35 56.67h4.09l4.58 17.88.46 2.62h.14l.46-2.62 4.62-17.88h4.1l-6.62 24.5h-5.25l-6.58-24.5zM404.66 77.67v3.5h-14.38v-24.5h13.68v3.5h-9.76v5.71h8.82v3.5h-8.82v8.29h10.46zM223.99 92.89v18.06h3.36v3.22h-10.6v-3.22h3.33V92.89h-3.33v-3.22h10.6v3.22h-3.36zM232.81 89.67h5.57l6.79 19.92h.14l-.14-2.7V89.67h3.54v24.5h-5.57l-6.79-19.92h-.14l.14 3.64v16.28h-3.54v-24.5zM253.36 89.67h6.58c1.82 0 3.44.45 4.87 1.35 1.42.9 2.54 2.26 3.36 4.09.82 1.83 1.23 4.1 1.23 6.81 0 2.68-.41 4.95-1.23 6.79-.82 1.84-1.94 3.21-3.36 4.11-1.42.9-3.04 1.35-4.87 1.35h-6.58v-24.5zm6.26 21c1.8 0 3.22-.69 4.27-2.07 1.05-1.38 1.58-3.6 1.58-6.68s-.53-5.31-1.58-6.68-2.47-2.07-4.27-2.07h-2.34v17.5h2.34zM274.96 112.26c-1.48-1.46-2.22-3.62-2.22-6.49v-16.1h3.92v16.45c0 1.61.4 2.82 1.19 3.62.79.81 1.91 1.21 3.36 1.21s2.57-.4 3.38-1.21c.8-.8 1.21-2.01 1.21-3.62V89.67h3.92v16.1c0 2.87-.75 5.04-2.24 6.49s-3.58 2.19-6.26 2.19c-2.7 0-4.78-.73-6.26-2.19zM294.31 112.51c-1.37-1.29-2.09-3.17-2.19-5.62h3.67c.12 1.33.54 2.36 1.26 3.08.72.72 1.71 1.08 2.98 1.08 1.17 0 2.12-.29 2.87-.88.75-.58 1.12-1.45 1.12-2.59 0-1.03-.42-1.88-1.26-2.55s-2.23-1.39-4.17-2.13c-3.92-1.54-5.88-3.91-5.88-7.11 0-1.98.69-3.55 2.08-4.69 1.39-1.14 3.16-1.71 5.3-1.71 2.33 0 4.15.61 5.46 1.82 1.31 1.21 1.97 2.82 2 4.83h-3.75c0-.98-.33-1.79-1-2.42s-1.59-.95-2.78-.95c-1.05 0-1.91.27-2.59.82-.68.55-1.01 1.28-1.01 2.19 0 .89.33 1.67.98 2.35.65.68 1.81 1.35 3.46 2.03 1.68.68 3.01 1.35 3.99 2.01.98.67 1.71 1.44 2.19 2.33s.72 1.95.72 3.18c0 1.33-.33 2.51-.98 3.55-.65 1.04-1.56 1.85-2.73 2.43s-2.51.88-4.02.88c-2.45.01-4.36-.64-5.72-1.93zM326.91 93.17h-6.3v21h-3.92v-21h-6.26v-3.5h16.48v3.5zM344.6 100.07c-.67 1.03-1.6 1.77-2.82 2.24l3.39 11.87h-4.06l-3.22-11.34h-4.41v11.34h-3.92v-24.5h9.24c2.1 0 3.76.58 4.97 1.73 1.21 1.16 1.82 2.77 1.82 4.85.01 1.51-.32 2.78-.99 3.81zm-11-.67h5.04c.98 0 1.73-.28 2.26-.84.53-.56.79-1.33.79-2.31s-.26-1.75-.79-2.31-1.28-.84-2.26-.84h-5.04v6.3zM356.06 92.89v18.06h3.36v3.22h-10.61v-3.22h3.33V92.89h-3.33v-3.22h10.61v3.22h-3.36zM378.21 110.67v3.5h-14.38v-24.5h13.68v3.5h-9.76v5.71h8.82v3.5h-8.82v8.29h10.46zM382.93 112.51c-1.37-1.29-2.09-3.17-2.19-5.62h3.67c.12 1.33.54 2.36 1.26 3.08.72.72 1.71 1.08 2.98 1.08 1.17 0 2.12-.29 2.87-.88.75-.58 1.12-1.45 1.12-2.59 0-1.03-.42-1.88-1.26-2.55s-2.23-1.39-4.17-2.13c-3.92-1.54-5.88-3.91-5.88-7.11 0-1.98.69-3.55 2.08-4.69 1.39-1.14 3.16-1.71 5.3-1.71 2.33 0 4.15.61 5.46 1.82 1.31 1.21 1.97 2.82 2 4.83h-3.75c0-.98-.33-1.79-1-2.42s-1.59-.95-2.78-.95c-1.05 0-1.91.27-2.59.82-.68.55-1.01 1.28-1.01 2.19 0 .89.33 1.67.98 2.35.65.68 1.81 1.35 3.46 2.03 1.68.68 3.01 1.35 3.99 2.01.98.67 1.71 1.44 2.19 2.33s.72 1.95.72 3.18c0 1.33-.33 2.51-.98 3.55-.65 1.04-1.56 1.85-2.73 2.43s-2.51.88-4.02.88c-2.44.01-4.35-.64-5.72-1.93z"/></svg>
