<svg width="147" height="48" viewBox="0 0 147 48" fill="none" xmlns="http://www.w3.org/2000/svg">
  <path fill-rule="evenodd" clip-rule="evenodd"
    d="M122.938 0.516113H24.0615C11.0592 0.516113 0.517334 11.031 0.517334 23.9998C0.517334 36.9687 11.0592 47.4836 24.0615 47.4836H122.938C135.94 47.4836 146.482 36.9687 146.482 23.9998C146.482 11.031 135.94 0.516113 122.938 0.516113Z"
    fill="white" />
  <path
    d="M122.938 48H24.0618C10.7938 48 0 37.2339 0 24C0 10.7661 10.7938 0 24.0618 0H122.938C136.206 0 147 10.7661 147 24C147 37.2339 136.206 48 122.938 48ZM24.0618 1.03255C11.3632 1.03255 1.03521 11.334 1.03521 24C1.03521 36.666 11.3632 46.9674 24.0618 46.9674H122.938C135.633 46.9674 145.965 36.666 145.965 24C145.965 11.334 135.637 1.03255 122.938 1.03255H24.0618Z"
    fill="#1E1E1D" />
  <path fill-rule="evenodd" clip-rule="evenodd"
    d="M50.705 41.285H50.6706C45.5285 41.2781 41.1367 39.5572 37.9702 36.3149C34.9276 33.1932 33.2549 28.7911 33.2617 23.914C33.2686 18.4346 35.2718 13.8948 39.0544 10.7902C42.2863 8.13659 46.6127 6.67725 51.242 6.67725H51.273C60.7484 6.69101 64.7134 12.7796 66.2347 16.4073L66.3827 16.7618L64.2969 18.0388C62.3936 19.2056 60.8516 20.1521 58.8519 21.3464L68.1277 21.3601V22.1346C68.3308 28.1715 66.6649 33.1622 63.3126 36.5731C60.2803 39.657 55.9195 41.2884 50.7016 41.2884L50.705 41.285ZM51.242 7.57557C46.8261 7.57557 42.7062 8.96263 39.6395 11.4786C36.0737 14.4076 34.1842 18.7065 34.1738 23.914C34.1669 28.557 35.7468 32.7354 38.6276 35.6885C41.6151 38.7518 45.7798 40.3763 50.6706 40.3832H50.7085C55.7439 40.3832 59.764 38.8894 62.662 35.9432C65.8217 32.7285 67.398 27.9995 67.2225 22.255L49.7413 22.2275L49.731 28.2507L57.8641 28.261L57.8021 28.7635C57.4304 31.813 54.9626 33.5615 51.0355 33.5615H51.0148C45.7178 33.5546 42.5582 30.0439 42.5651 24.1721C42.5719 20.0867 44.1242 17.7669 45.4252 16.5416C46.8536 15.1958 48.8189 14.3939 50.6844 14.3939H50.6947C54.5978 14.4007 57.6576 17.5535 58.2875 20.627C60.3285 19.4121 61.8842 18.4552 63.8116 17.2747L65.2365 16.4005C63.698 12.9517 59.9154 7.59278 51.2695 7.57901H51.2385L51.242 7.57557ZM50.6878 15.2956C49.053 15.2956 47.3251 16.0046 46.062 17.1955C44.3789 18.7788 43.4875 21.1949 43.484 24.179C43.4772 29.4863 46.2926 32.6597 51.0183 32.6666H51.0355C54.2674 32.6666 56.2946 31.4275 56.8075 29.1628L48.8155 29.149L48.8258 21.3257L57.4752 21.3395C57.2067 18.4724 54.3775 15.2991 50.6982 15.2956H50.6878Z"
    fill="#1D1D1B" />
  <path fill-rule="evenodd" clip-rule="evenodd"
    d="M51.2454 7.57568C46.8295 7.57568 42.7096 8.96275 39.6429 11.4787C36.0772 14.4077 34.1876 18.7066 34.1773 23.9141C34.1704 28.5572 35.7502 32.7356 38.631 35.6887C41.6185 38.7519 45.7832 40.3764 50.674 40.3833H50.7119C55.7473 40.3833 59.7674 38.8896 62.6655 35.9434C65.8251 32.7287 67.4014 27.9996 67.2259 22.2551L49.7448 22.2276L49.7344 28.2508L57.8675 28.2612L57.8056 28.7637C57.4338 31.8131 54.966 33.5616 51.0389 33.5616H51.0182C45.7212 33.5547 42.5616 30.044 42.5685 24.1723C42.5754 20.0868 44.1277 17.767 45.4287 16.5417C46.857 15.1959 48.8223 14.394 50.6878 14.394H50.6981C54.6012 14.4009 57.661 17.5536 58.2909 20.6272C60.3319 19.4122 61.8876 18.4553 63.815 17.2748L65.24 16.4006C63.7015 12.9518 59.9189 7.59289 51.2729 7.57913H51.242L51.2454 7.57568Z"
    fill="white" />
  <path fill-rule="evenodd" clip-rule="evenodd"
    d="M47.0259 41.285H46.9914C41.8493 41.2781 37.4575 39.5572 34.291 36.3149C31.2484 33.1932 29.5757 28.7911 29.5825 23.914C29.5894 18.4346 31.5926 13.8948 35.3752 10.7902C38.6071 8.13659 42.9335 6.67725 47.5628 6.67725H47.5938C57.0692 6.69101 61.0342 12.7796 62.5555 16.4073L62.7035 16.7618L60.6177 18.0388C58.7144 19.2056 57.1724 20.1521 55.1727 21.3464L64.4485 21.3601V22.1346C64.6516 28.1715 62.9857 33.1622 59.6334 36.5731C56.6011 39.657 52.2403 41.2884 47.0224 41.2884L47.0259 41.285ZM47.5628 7.57557C43.1469 7.57557 39.027 8.96263 35.9603 11.4786C32.3945 14.4076 30.505 18.7065 30.4946 23.914C30.4877 28.557 32.0676 32.7354 34.9484 35.6885C37.9359 38.7518 42.1006 40.3763 46.9914 40.3832H47.0293C52.0647 40.3832 56.0848 38.8894 58.9828 35.9432C62.1425 32.7285 63.7188 27.9995 63.5433 22.255L46.0621 22.2275L46.0518 28.2507L54.1849 28.261L54.1229 28.7635C53.7512 31.813 51.2834 33.5615 47.3563 33.5615H47.3356C42.0386 33.5546 38.879 30.0439 38.8859 24.1721C38.8928 20.0867 40.445 17.7669 41.746 16.5416C43.1744 15.1958 45.1397 14.3939 47.0052 14.3939H47.0155C50.9186 14.4007 53.9784 17.5535 54.6083 20.627C56.6493 19.4121 58.205 18.4552 60.1324 17.2747L61.5574 16.4005C60.0188 12.9517 56.2362 7.59278 47.5903 7.57901H47.5593L47.5628 7.57557ZM47.0086 15.2956C45.3738 15.2956 43.646 16.0046 42.3828 17.1955C40.6997 18.7788 39.8083 21.1949 39.8048 24.179C39.798 29.4863 42.6134 32.6597 47.3391 32.6666H47.3563C50.5882 32.6666 52.6154 31.4275 53.1283 29.1628L45.1363 29.149L45.1466 21.3257L53.796 21.3395C53.5275 18.4724 50.6983 15.2991 47.019 15.2956H47.0086Z"
    fill="#1D1D1B" />
  <path fill-rule="evenodd" clip-rule="evenodd"
    d="M47.5628 7.57568C43.1469 7.57568 39.027 8.96275 35.9603 11.4787C32.3946 14.4077 30.505 18.7066 30.4947 23.9141C30.4878 28.5572 32.0676 32.7356 34.9484 35.6887C37.9359 38.7519 42.1006 40.3764 46.9914 40.3833H47.0293C52.0647 40.3833 56.0848 38.8896 58.9828 35.9434C62.1425 32.7287 63.7188 27.9996 63.5433 22.2551L46.0621 22.2276L46.0518 28.2508L54.1849 28.2612L54.1229 28.7637C53.7512 31.8131 51.2834 33.5616 47.3563 33.5616H47.3356C42.0386 33.5547 38.879 30.044 38.8859 24.1723C38.8928 20.0868 40.445 17.767 41.7461 16.5417C43.1744 15.1959 45.1397 14.394 47.0052 14.394H47.0155C50.9186 14.4009 53.9784 17.5536 54.6083 20.6272C56.6493 19.4122 58.205 18.4553 60.1324 17.2748L61.5573 16.4006C60.0188 12.9518 56.2362 7.59289 47.5903 7.57913H47.5593L47.5628 7.57568Z"
    fill="white" />
  <path fill-rule="evenodd" clip-rule="evenodd"
    d="M43.343 41.285H43.3086C38.1664 41.2781 33.7746 39.5572 30.6081 36.3149C27.5655 33.1932 25.8928 28.7911 25.8997 23.914C25.9066 18.4346 27.9097 13.8948 31.6923 10.7902C34.9242 8.13659 39.2506 6.67725 43.8799 6.67725H43.9109C53.3863 6.69101 57.3513 12.7796 58.8726 16.4073L59.0206 16.7618L56.9349 18.0388C55.0315 19.2056 53.4896 20.1521 51.4899 21.3464L60.7656 21.3601V22.1346C60.9687 28.1715 59.3029 33.1622 55.9505 36.5731C52.9182 39.657 48.5574 41.2884 43.3395 41.2884L43.343 41.285ZM43.8799 7.57557C39.464 7.57557 35.3441 8.96263 32.2774 11.4786C28.7117 14.4076 26.8221 18.7065 26.8118 23.914C26.8049 28.557 28.3847 32.7354 31.2655 35.6885C34.2531 38.7518 38.4177 40.3763 43.3086 40.3832H43.3464C48.3819 40.3832 52.4019 38.8894 55.3 35.9432C58.4596 32.7285 60.036 27.9995 59.8604 22.255L42.3793 22.2275L42.3689 28.2507L50.502 28.261L50.4401 28.7635C50.0684 31.813 47.6006 33.5615 43.6734 33.5615H43.6528C38.3557 33.5546 35.1961 30.0439 35.203 24.1721C35.2099 20.0867 36.7622 17.7669 38.0632 16.5416C39.4916 15.1958 41.4569 14.3939 43.3223 14.3939H43.3327C47.2357 14.4007 50.2955 17.5535 50.9254 20.627C52.9664 19.4121 54.5221 18.4552 56.4496 17.2747L57.8745 16.4005C56.336 12.9517 52.5534 7.59278 43.9074 7.57901H43.8765L43.8799 7.57557ZM43.3258 15.2956C41.6909 15.2956 39.9631 16.0046 38.6999 17.1955C37.0169 18.7788 36.1254 21.1949 36.122 24.179C36.1151 29.4863 38.9305 32.6597 43.6562 32.6666H43.6734C46.9053 32.6666 48.9326 31.4275 49.4454 29.1628L41.4534 29.149L41.4637 21.3257L50.1131 21.3395C49.8446 18.4724 47.0154 15.2991 43.3361 15.2956H43.3258Z"
    fill="#1D1D1B" />
  <path fill-rule="evenodd" clip-rule="evenodd"
    d="M43.8833 7.57568C39.4674 7.57568 35.3476 8.96275 32.2809 11.4787C28.7151 14.4077 26.8255 18.7066 26.8152 23.9141C26.8083 28.5572 28.3881 32.7356 31.269 35.6887C34.2565 38.7519 38.4211 40.3764 43.312 40.3833H43.3499C48.3853 40.3833 52.4054 38.8896 55.3034 35.9434C58.463 32.7287 60.0394 27.9996 59.8638 22.2551L42.3827 22.2276L42.3724 28.2508L50.5055 28.2612L50.4435 28.7637C50.0718 31.8131 47.604 33.5616 43.6768 33.5616H43.6562C38.3592 33.5547 35.1996 30.044 35.2064 24.1723C35.2133 20.0868 36.7656 17.767 38.0666 16.5417C39.495 15.1959 41.4603 14.394 43.3258 14.394H43.3361C47.2391 14.4009 50.2989 17.5536 50.9288 20.6272C52.9698 19.4122 54.5255 18.4553 56.453 17.2748L57.8779 16.4006C56.3394 12.9518 52.5568 7.59289 43.9109 7.57913H43.8799L43.8833 7.57568Z"
    fill="white" />
  <path fill-rule="evenodd" clip-rule="evenodd"
    d="M39.6635 41.285H39.6291C34.487 41.2781 30.0952 39.5572 26.9287 36.3149C23.8861 33.1932 22.2134 28.7911 22.2202 23.914C22.2271 18.4346 24.2303 13.8948 28.0129 10.7902C31.2448 8.13659 35.5712 6.67725 40.2005 6.67725H40.2314C49.7069 6.69101 53.6719 12.7796 55.1932 16.4073L55.3412 16.7618L53.2554 18.0388C51.3521 19.2056 49.8101 20.1521 47.8104 21.3464L57.0862 21.3601V22.1346C57.2893 28.1715 55.6234 33.1622 52.271 36.5731C49.2388 39.657 44.878 41.2884 39.6601 41.2884L39.6635 41.285ZM40.2005 7.57557C35.7846 7.57557 31.6647 8.96263 28.598 11.4786C25.0322 14.4076 23.1427 18.7065 23.1323 23.914C23.1254 28.557 24.7053 32.7354 27.5861 35.6885C30.5736 38.7518 34.7383 40.3763 39.6291 40.3832H39.667C44.7024 40.3832 48.7225 38.8894 51.6205 35.9432C54.7802 32.7285 56.3565 27.9995 56.181 22.255L38.6998 22.2275L38.6895 28.2507L46.8226 28.261L46.7606 28.7635C46.3889 31.813 43.9211 33.5615 39.994 33.5615H39.9733C34.6763 33.5546 31.5167 30.0439 31.5236 24.1721C31.5304 20.0867 33.0827 17.7669 34.3837 16.5416C35.8121 15.1958 37.7774 14.3939 39.6429 14.3939H39.6532C43.5563 14.4007 46.6161 17.5535 47.2459 20.627C49.287 19.4121 50.8427 18.4552 52.7701 17.2747L54.195 16.4005C52.6565 12.9517 48.8739 7.59278 40.228 7.57901H40.197L40.2005 7.57557ZM39.6463 15.2956C38.0115 15.2956 36.2836 16.0046 35.0205 17.1955C33.3374 18.7788 32.446 21.1949 32.4425 24.179C32.4357 29.4863 35.2511 32.6597 39.9768 32.6666H39.994C43.2259 32.6666 45.2531 31.4275 45.7659 29.1628L37.774 29.149L37.7843 21.3257L46.4337 21.3395C46.1652 18.4724 43.336 15.2991 39.6567 15.2956H39.6463Z"
    fill="#1D1D1B" />
  <path fill-rule="evenodd" clip-rule="evenodd"
    d="M40.2005 7.57568C35.7846 7.57568 31.6647 8.96275 28.598 11.4787C25.0322 14.4077 23.1427 18.7066 23.1323 23.9141C23.1255 28.5572 24.7053 32.7356 27.5861 35.6887C30.5736 38.7519 34.7383 40.3764 39.6291 40.3833H39.667C44.7024 40.3833 48.7225 38.8896 51.6205 35.9434C54.7802 32.7287 56.3565 27.9996 56.181 22.2551L38.6998 22.2276L38.6895 28.2508L46.8226 28.2612L46.7606 28.7637C46.3889 31.8131 43.9211 33.5616 39.994 33.5616H39.9733C34.6763 33.5547 31.5167 30.044 31.5236 24.1723C31.5305 20.0868 33.0827 17.767 34.3838 16.5417C35.8121 15.1959 37.7774 14.394 39.6429 14.394H39.6532C43.5563 14.4009 46.6161 17.5536 47.2459 20.6272C49.287 19.4122 50.8427 18.4553 52.7701 17.2748L54.195 16.4006C52.6565 12.9518 48.8739 7.59289 40.228 7.57913H40.197L40.2005 7.57568Z"
    fill="white" />
  <path fill-rule="evenodd" clip-rule="evenodd"
    d="M35.9843 41.285H35.9499C30.8078 41.2781 26.416 39.5572 23.2495 36.3149C20.2069 33.1932 18.5342 28.7911 18.541 23.914C18.5479 18.4346 20.5511 13.8948 24.3337 10.7902C27.5656 8.13659 31.892 6.67725 36.5213 6.67725H36.5522C46.0277 6.69101 49.9927 12.7796 51.514 16.4073L51.662 16.7618L49.5762 18.0388C47.6729 19.2056 46.1309 20.1521 44.1312 21.3464L53.407 21.3601V22.1346C53.6101 28.1715 51.9442 33.1622 48.5918 36.5731C45.5596 39.657 41.1988 41.2884 35.9809 41.2884L35.9843 41.285ZM36.5213 7.57557C32.1054 7.57557 27.9855 8.96263 24.9188 11.4786C21.353 14.4076 19.4635 18.7065 19.4531 23.914C19.4462 28.557 21.0261 32.7354 23.9069 35.6885C26.8944 38.7518 31.0591 40.3763 35.9499 40.3832H35.9878C41.0232 40.3832 45.0433 38.8894 47.9413 35.9432C51.101 32.7285 52.6773 27.9995 52.5018 22.255L35.0206 22.2275L35.0103 28.2507L43.1434 28.261L43.0814 28.7635C42.7097 31.813 40.2419 33.5615 36.3148 33.5615H36.2941C30.9971 33.5546 27.8375 30.0439 27.8444 24.1721C27.8512 20.0867 29.4035 17.7669 30.7045 16.5416C32.1329 15.1958 34.0982 14.3939 35.9637 14.3939H35.974C39.8771 14.4007 42.9369 17.5535 43.5667 20.627C45.6078 19.4121 47.1635 18.4552 49.0909 17.2747L50.5158 16.4005C48.9773 12.9517 45.1947 7.59278 36.5488 7.57901H36.5178L36.5213 7.57557ZM35.9671 15.2956C34.3323 15.2956 32.6044 16.0046 31.3413 17.1955C29.6582 18.7788 28.7668 21.1949 28.7633 24.179C28.7565 29.4863 31.5719 32.6597 36.2976 32.6666H36.3148C39.5467 32.6666 41.5739 31.4275 42.0868 29.1628L34.0948 29.149L34.1051 21.3257L42.7545 21.3395C42.486 18.4724 39.6568 15.2991 35.9775 15.2956H35.9671Z"
    fill="#1D1D1B" />
  <path fill-rule="evenodd" clip-rule="evenodd"
    d="M36.5213 7.57568C32.1054 7.57568 27.9855 8.96275 24.9188 11.4787C21.353 14.4077 19.4635 18.7066 19.4531 23.9141C19.4463 28.5572 21.0261 32.7356 23.9069 35.6887C26.8944 38.7519 31.0591 40.3764 35.9499 40.3833H35.9878C41.0232 40.3833 45.0433 38.8896 47.9413 35.9434C51.101 32.7287 52.6773 27.9996 52.5018 22.2551L35.0206 22.2276L35.0103 28.2508L43.1434 28.2612L43.0814 28.7637C42.7097 31.8131 40.2419 33.5616 36.3148 33.5616H36.2941C30.9971 33.5547 27.8375 30.044 27.8444 24.1723C27.8513 20.0868 29.4035 17.767 30.7046 16.5417C32.1329 15.1959 34.0982 14.394 35.9637 14.394H35.974C39.8771 14.4009 42.9369 17.5536 43.5667 20.6272C45.6078 19.4122 47.1635 18.4553 49.0909 17.2748L50.5158 16.4006C48.9773 12.9518 45.1947 7.59289 36.5488 7.57913H36.5178L36.5213 7.57568Z"
    fill="white" />
  <path fill-rule="evenodd" clip-rule="evenodd"
    d="M32.3015 41.285H32.2671C27.1249 41.2781 22.7331 39.5572 19.5666 36.3149C16.524 33.1932 14.8513 28.7911 14.8582 23.914C14.8651 18.4346 16.8682 13.8948 20.6508 10.7902C23.8827 8.13659 28.2091 6.67725 32.8384 6.67725H32.8694C42.3448 6.69101 46.3098 12.7796 47.8311 16.4073L47.9791 16.7618L45.8934 18.0388C43.99 19.2056 42.4481 20.1521 40.4483 21.3464L49.7241 21.3601V22.1346C49.9272 28.1715 48.2614 33.1622 44.909 36.5731C41.8767 39.657 37.5159 41.2884 32.298 41.2884L32.3015 41.285ZM32.8384 7.57557C28.4225 7.57557 24.3026 8.96263 21.2359 11.4786C17.6702 14.4076 15.7806 18.7065 15.7703 23.914C15.7634 28.557 17.3432 32.7354 20.224 35.6885C23.2116 38.7518 27.3762 40.3763 32.2671 40.3832H32.3049C37.3404 40.3832 41.3604 38.8894 44.2585 35.9432C47.4181 32.7285 48.9945 27.9995 48.8189 22.255L31.3378 22.2275L31.3274 28.2507L39.4605 28.261L39.3986 28.7635C39.0269 31.813 36.5591 33.5615 32.6319 33.5615H32.6112C27.3142 33.5546 24.1546 30.0439 24.1615 24.1721C24.1684 20.0867 25.7207 17.7669 27.0217 16.5416C28.4501 15.1958 30.4153 14.3939 32.2808 14.3939H32.2912C36.1942 14.4007 39.254 17.5535 39.8839 20.627C41.9249 19.4121 43.4806 18.4552 45.4081 17.2747L46.833 16.4005C45.2945 12.9517 41.5119 7.59278 32.8659 7.57901H32.835L32.8384 7.57557ZM32.2843 15.2956C30.6494 15.2956 28.9216 16.0046 27.6584 17.1955C25.9754 18.7788 25.0839 21.1949 25.0805 24.179C25.0736 29.4863 27.889 32.6597 32.6147 32.6666H32.6319C35.8638 32.6666 37.8911 31.4275 38.4039 29.1628L30.4119 29.149L30.4222 21.3257L39.0716 21.3395C38.8031 18.4724 35.9739 15.2991 32.2946 15.2956H32.2843Z"
    fill="#1D1D1B" />
  <path fill-rule="evenodd" clip-rule="evenodd"
    d="M32.8418 7.57568C28.4259 7.57568 24.306 8.96275 21.2394 11.4787C17.6736 14.4077 15.784 18.7066 15.7737 23.9141C15.7668 28.5572 17.3466 32.7356 20.2275 35.6887C23.215 38.7519 27.3796 40.3764 32.2705 40.3833H32.3083C37.3438 40.3833 41.3639 38.8896 44.2619 35.9434C47.4215 32.7287 48.9979 27.9996 48.8223 22.2551L31.3412 22.2276L31.3309 28.2508L39.464 28.2612L39.402 28.7637C39.0303 31.8131 36.5625 33.5616 32.6353 33.5616H32.6147C27.3177 33.5547 24.158 30.044 24.1649 24.1723C24.1718 20.0868 25.7241 17.767 27.0251 16.5417C28.4535 15.1959 30.4188 14.394 32.2843 14.394H32.2946C36.1976 14.4009 39.2574 17.5536 39.8873 20.6272C41.9283 19.4122 43.484 18.4553 45.4115 17.2748L46.8364 16.4006C45.2979 12.9518 41.5153 7.59289 32.8694 7.57913H32.8384L32.8418 7.57568Z"
    fill="white" />
  <path fill-rule="evenodd" clip-rule="evenodd"
    d="M28.6223 41.285H28.5879C23.4457 41.2781 19.0539 39.5572 15.8874 36.3149C12.8448 33.1932 11.1721 28.7911 11.179 23.914C11.1859 18.4346 13.189 13.8948 16.9716 10.7902C20.2035 8.13659 24.5299 6.67725 29.1592 6.67725H29.1902C38.6656 6.69101 42.6306 12.7796 44.1519 16.4073L44.2999 16.7618L42.2142 18.0388C40.3108 19.2056 38.7689 20.1521 36.7691 21.3464L46.0449 21.3601V22.1346C46.248 28.1715 44.5822 33.1622 41.2298 36.5731C38.1975 39.657 33.8367 41.2884 28.6188 41.2884L28.6223 41.285ZM29.1592 7.57557C24.7433 7.57557 20.6234 8.96263 17.5567 11.4786C13.991 14.4076 12.1014 18.7065 12.0911 23.914C12.0842 28.557 13.664 32.7354 16.5448 35.6885C19.5324 38.7518 23.697 40.3763 28.5879 40.3832H28.6257C33.6612 40.3832 37.6812 38.8894 40.5793 35.9432C43.7389 32.7285 45.3153 27.9995 45.1397 22.255L27.6586 22.2275L27.6482 28.2507L35.7813 28.261L35.7194 28.7635C35.3477 31.813 32.8799 33.5615 28.9527 33.5615H28.932C23.635 33.5546 20.4754 30.0439 20.4823 24.1721C20.4892 20.0867 22.0415 17.7669 23.3425 16.5416C24.7709 15.1958 26.7361 14.3939 28.6016 14.3939H28.612C32.515 14.4007 35.5748 17.5535 36.2047 20.627C38.2457 19.4121 39.8014 18.4552 41.7289 17.2747L43.1538 16.4005C41.6153 12.9517 37.8327 7.59278 29.1867 7.57901H29.1558L29.1592 7.57557ZM28.6051 15.2956C26.9702 15.2956 25.2424 16.0046 23.9792 17.1955C22.2962 18.7788 21.4047 21.1949 21.4013 24.179C21.3944 29.4863 24.2098 32.6597 28.9355 32.6666H28.9527C32.1846 32.6666 34.2119 31.4275 34.7247 29.1628L26.7327 29.149L26.743 21.3257L35.3924 21.3395C35.1239 18.4724 32.2947 15.2991 28.6154 15.2956H28.6051Z"
    fill="#1D1D1B" />
  <path fill-rule="evenodd" clip-rule="evenodd"
    d="M29.1592 7.57568C24.7433 7.57568 20.6234 8.96275 17.5567 11.4787C13.991 14.4077 12.1014 18.7066 12.0911 23.9141C12.0842 28.5572 13.664 32.7356 16.5448 35.6887C19.5324 38.7519 23.697 40.3764 28.5879 40.3833H28.6257C33.6612 40.3833 37.6812 38.8896 40.5793 35.9434C43.7389 32.7287 45.3153 27.9996 45.1397 22.2551L27.6586 22.2276L27.6482 28.2508L35.7813 28.2612L35.7194 28.7637C35.3477 31.8131 32.8799 33.5616 28.9527 33.5616H28.9321C23.635 33.5547 20.4754 30.044 20.4823 24.1723C20.4892 20.0868 22.0415 17.767 23.3425 16.5417C24.7709 15.1959 26.7362 14.394 28.6016 14.394H28.612C32.515 14.4009 35.5748 17.5536 36.2047 20.6272C38.2457 19.4122 39.8014 18.4553 41.7289 17.2748L43.1538 16.4006C41.6153 12.9518 37.8327 7.59289 29.1868 7.57913H29.1558L29.1592 7.57568Z"
    fill="white" />
  <path fill-rule="evenodd" clip-rule="evenodd"
    d="M24.9394 41.285H24.905C19.7629 41.2781 15.3711 39.5572 12.2046 36.3149C9.16197 33.1932 7.48923 28.7911 7.49611 23.914C7.503 18.4346 9.50616 13.8948 13.2888 10.7902C16.5207 8.13659 20.8471 6.67725 25.4764 6.67725H25.5073C34.9827 6.69101 38.9478 12.7796 40.4691 16.4073L40.6171 16.7618L38.5313 18.0388C36.628 19.2056 35.086 20.1521 33.0863 21.3464L42.3621 21.3601V22.1346C42.5651 28.1715 40.8993 33.1622 37.5469 36.5731C34.5147 39.657 30.1538 41.2884 24.936 41.2884L24.9394 41.285ZM25.4764 7.57557C21.0605 7.57557 16.9406 8.96263 13.8739 11.4786C10.3081 14.4076 8.41853 18.7065 8.40821 23.914C8.40132 28.557 9.98113 32.7354 12.862 35.6885C15.8495 38.7518 20.0141 40.3763 24.905 40.3832H24.9429C29.9783 40.3832 33.9984 38.8894 36.8964 35.9432C40.056 32.7285 41.6324 27.9995 41.4569 22.255L23.9757 22.2275L23.9654 28.2507L32.0985 28.261L32.0365 28.7635C31.6648 31.813 29.197 33.5615 25.2698 33.5615H25.2492C19.9522 33.5546 16.7926 30.0439 16.7994 24.1721C16.8063 20.0867 18.3586 17.7669 19.6596 16.5416C21.088 15.1958 23.0533 14.3939 24.9188 14.3939H24.9291C28.8322 14.4007 31.892 17.5535 32.5218 20.627C34.5628 19.4121 36.1186 18.4552 38.046 17.2747L39.4709 16.4005C37.9324 12.9517 34.1498 7.59278 25.5039 7.57901H25.4729L25.4764 7.57557ZM24.9222 15.2956C23.2873 15.2956 21.5595 16.0046 20.2964 17.1955C18.6133 18.7788 17.7219 21.1949 17.7184 24.179C17.7115 29.4863 20.527 32.6597 25.2526 32.6666H25.2698C28.5017 32.6666 30.529 31.4275 31.0418 29.1628L23.0498 29.149L23.0602 21.3257L31.7095 21.3395C31.4411 18.4724 28.6119 15.2991 24.9325 15.2956H24.9222Z"
    fill="#1D1D1B" />
  <path fill-rule="evenodd" clip-rule="evenodd"
    d="M25.4798 7.57568C21.0639 7.57568 16.944 8.96275 13.8773 11.4787C10.3115 14.4077 8.42197 18.7066 8.41164 23.9141C8.40476 28.5572 9.98457 32.7356 12.8654 35.6887C15.8529 38.7519 20.0176 40.3764 24.9084 40.3833H24.9463C29.9817 40.3833 34.0018 38.8896 36.8998 35.9434C40.0594 32.7287 41.6358 27.9996 41.4603 22.2551L23.9791 22.2276L23.9688 28.2508L32.1019 28.2612L32.0399 28.7637C31.6682 31.8131 29.2004 33.5616 25.2733 33.5616H25.2526C19.9556 33.5547 16.796 30.044 16.8029 24.1723C16.8098 20.0868 18.362 17.767 19.663 16.5417C21.0914 15.1959 23.0567 14.394 24.9222 14.394H24.9325C28.8356 14.4009 31.8954 17.5536 32.5252 20.6272C34.5663 19.4122 36.122 18.4553 38.0494 17.2748L39.4743 16.4006C37.9358 12.9518 34.1532 7.59289 25.5073 7.57913H25.4763L25.4798 7.57568Z"
    fill="white" />
  <path
    d="M78.9525 14.6486C78.4741 15.2165 77.8477 15.5676 77.0802 15.7053V16.7619H75.7964V15.7053C75.022 15.5779 74.3921 15.2303 73.9137 14.6624C73.4318 14.0945 73.1943 13.3338 73.1943 12.3839C73.1943 11.4339 73.4353 10.6698 73.9137 10.0985C74.3921 9.52716 75.022 9.17609 75.7964 9.04874V8.00586H77.0802V9.04874C77.8477 9.18641 78.4707 9.53748 78.9525 10.1123C79.4344 10.6871 79.6719 11.4408 79.6719 12.3873C79.6719 13.3338 79.431 14.0876 78.9525 14.6555V14.6486ZM74.7879 13.8329C75.0185 14.2012 75.3558 14.4421 75.7964 14.5523V10.1949C75.3558 10.3085 75.022 10.5459 74.7879 10.9142C74.5573 11.2825 74.4403 11.7712 74.4403 12.377C74.4403 12.9828 74.5573 13.4612 74.7879 13.8295V13.8329ZM78.0749 13.826C78.3055 13.4612 78.4225 12.9793 78.4225 12.3804C78.4225 11.7816 78.3055 11.2963 78.0749 10.928C77.8443 10.5597 77.5104 10.3188 77.0802 10.2086V14.5419C77.5104 14.4283 77.8443 14.1909 78.0749 13.8295V13.826Z"
    fill="#1D1D1B" />
  <path
    d="M85.4852 15.3781V16.5793H80.553V8.17773H85.2442V9.37894H81.8953V11.3339H84.9207V12.5351H81.8953V15.3781H85.4852Z"
    fill="#1D1D1B" />
  <path
    d="M87.5914 16.2319C87.144 15.9359 86.7826 15.4643 86.5107 14.8207C86.2387 14.1771 86.1011 13.3614 86.1011 12.377C86.1011 11.3926 86.2525 10.5907 86.5588 9.94705C86.8617 9.30342 87.2541 8.83189 87.736 8.52901C88.2144 8.22957 88.7272 8.07812 89.271 8.07812C90.0385 8.07812 90.6581 8.31905 91.1262 8.80436C91.5943 9.28966 91.849 9.99868 91.8868 10.9349H90.5548C90.5376 10.3738 90.4103 9.95738 90.1659 9.68547C89.9215 9.41356 89.6118 9.27589 89.2366 9.27589C88.741 9.27589 88.3176 9.51682 87.97 9.99524C87.6224 10.4737 87.4468 11.2687 87.4468 12.3701C87.4468 13.4715 87.612 14.2666 87.939 14.745C88.266 15.2234 88.6687 15.4643 89.1402 15.4643C90.1246 15.4643 90.6615 14.7484 90.7476 13.3166H92.0692C92.0038 14.4283 91.6975 15.2647 91.1503 15.8257C90.603 16.3868 89.9146 16.6655 89.092 16.6655C88.5413 16.6655 88.0388 16.5175 87.5914 16.2215V16.2319Z"
    fill="#1D1D1B" />
  <path d="M98.3163 9.37894H96.1549V16.5793H94.8091V9.37894H92.6614V8.17773H98.3129V9.37894H98.3163Z" fill="#1D1D1B" />
  <path
    d="M99.2354 8.17773H100.581V13.2304L100.533 14.1528H100.581L103.149 8.17773H104.66V16.5793H103.314V11.8502L103.362 10.6008H103.314L100.746 16.5793H99.2354V8.17773Z"
    fill="#1D1D1B" />
  <path
    d="M106.026 8.17773H108.762C109.492 8.17773 110.053 8.35671 110.449 8.71122C110.844 9.06573 111.044 9.57856 111.044 10.2428C111.044 10.6111 110.955 10.9381 110.772 11.2272C110.593 11.5163 110.38 11.7228 110.129 11.8502V11.8984C110.944 12.2357 111.354 12.9412 111.354 14.022C111.354 14.5486 111.237 15.0098 111.006 15.3953C110.776 15.7842 110.466 16.0768 110.08 16.2764C109.695 16.476 109.275 16.5758 108.821 16.5758H106.026V8.17773ZM108.762 11.3477C109.385 11.3477 109.698 11.0173 109.698 10.353C109.698 9.6887 109.385 9.35829 108.762 9.35829H107.372V11.3511H108.762V11.3477ZM108.704 15.4056C109.574 15.4056 110.012 14.9169 110.012 13.9428C110.012 12.9688 109.574 12.48 108.704 12.48H107.372V15.409H108.704V15.4056Z"
    fill="#1D1D1B" />
  <path
    d="M116.29 14.9823H113.602L113.206 16.5793H111.85L114.059 8.17773H115.835L118.055 16.5793H116.699L116.29 14.9823ZM116.014 13.8671L115.126 10.3736L114.971 9.49941H114.923L114.768 10.3736L113.894 13.8671H116.018H116.014Z"
    fill="#1D1D1B" />
  <path
    d="M118.62 16.5793V15.3436C118.747 15.3987 118.868 15.4262 118.981 15.4262C119.198 15.4262 119.353 15.3436 119.449 15.175C119.546 15.0063 119.604 14.7138 119.628 14.3008L119.966 8.18115H124.598V16.5827H123.253V9.37891H121.139L120.85 14.4074C120.802 15.2163 120.651 15.7945 120.392 16.1421C120.138 16.4898 119.745 16.6653 119.215 16.6653C118.961 16.6653 118.758 16.6378 118.616 16.5827L118.62 16.5793Z"
    fill="#1D1D1B" />
  <path
    d="M125.91 8.17773H127.255V11.7297H128.636C129.451 11.7297 130.088 11.9431 130.542 12.3665C131 12.7898 131.227 13.3852 131.227 14.1562C131.227 14.9272 131 15.5192 130.542 15.946C130.085 16.3728 129.451 16.5827 128.636 16.5827H125.91V8.17773ZM128.622 15.4022C129.462 15.4022 129.882 14.9857 129.882 14.1528C129.882 13.3198 129.458 12.9034 128.608 12.9034H127.252V15.3987H128.622V15.4022Z"
    fill="#1D1D1B" />
  <path
    d="M73.8172 19.5738H75.1629V23.6179H75.2111L77.8751 19.5738H79.3035L76.5775 23.7246L79.362 27.9719H77.8854L75.2077 23.9277H75.1595V27.9719H73.8137V19.5703L73.8172 19.5738Z"
    fill="#1D1D1B" />
  <path
    d="M80.2224 19.5737H83.5231C84.2425 19.5737 84.8035 19.763 85.2097 20.1451C85.6124 20.5237 85.8154 21.064 85.8154 21.7593C85.8154 22.4546 85.6124 22.9949 85.2097 23.3735C84.807 23.7521 84.2425 23.9449 83.5231 23.9449H81.5682V27.9787H80.2224V19.5772V19.5737ZM83.4991 22.7678C84.1461 22.7678 84.4697 22.4305 84.4697 21.7593C84.4697 21.0881 84.1461 20.7508 83.4991 20.7508H81.5682V22.7678H83.4991Z"
    fill="#1D1D1B" />
  <path
    d="M91.8077 26.7741V27.9753H86.8755V19.5737H91.5667V20.7749H88.2178V22.7299H91.2432V23.9311H88.2178V26.7741H91.8077Z"
    fill="#1D1D1B" />
  <path
    d="M97.1392 26.3783H94.4511L94.0553 27.9753H92.6992L94.9089 19.5737H96.6849L98.9049 27.9753H97.5488L97.1392 26.3783ZM96.8639 25.2631L95.9759 21.7696L95.821 20.8954H95.7728L95.6179 21.7696L94.7437 25.2631H96.8673H96.8639Z"
    fill="#1D1D1B" />
  <path d="M104.34 20.7749H102.178V27.9753H100.832V20.7749H98.6846V19.5737H104.336V20.7749H104.34Z" fill="#1D1D1B" />
  <path
    d="M105.255 19.5737H106.601V24.6264L106.553 25.5488H106.601L109.169 19.5737H110.679V27.9753H109.334V23.2462L109.382 21.9968H109.334L106.766 27.9753H105.255V19.5737Z"
    fill="#1D1D1B" />
  <path
    d="M112.046 19.5738H114.782C115.512 19.5738 116.073 19.7527 116.469 20.1072C116.864 20.4618 117.064 20.9746 117.064 21.6389C117.064 22.0071 116.975 22.3341 116.792 22.6232C116.613 22.9123 116.4 23.1189 116.149 23.2462V23.2944C116.964 23.6317 117.374 24.3373 117.374 25.418C117.374 25.9446 117.257 26.4058 117.026 26.7913C116.796 27.1802 116.486 27.4728 116.1 27.6724C115.715 27.8721 115.295 27.9719 114.841 27.9719H112.046V19.5703V19.5738ZM114.782 22.7437C115.405 22.7437 115.718 22.4133 115.718 21.749C115.718 21.0847 115.405 20.7543 114.782 20.7543H113.392V22.7471H114.782V22.7437ZM114.724 26.8016C115.594 26.8016 116.032 26.3129 116.032 25.3389C116.032 24.3648 115.594 23.8761 114.724 23.8761H113.392V26.8051H114.724V26.8016Z"
    fill="#1D1D1B" />
  <path
    d="M123.824 19.5737V27.9753H122.478V23.9414H119.766V27.9753H118.42V19.5737H119.766V22.7437H122.478V19.5737H123.824Z"
    fill="#1D1D1B" />
  <path
    d="M124.956 19.5737H126.24V23.1257H126.553C127.345 23.1257 127.964 23.3391 128.408 23.7625C128.852 24.1858 129.073 24.7812 129.073 25.5522C129.073 26.3232 128.852 26.9152 128.408 27.342C127.964 27.7653 127.345 27.9787 126.553 27.9787H124.956V19.5772V19.5737ZM126.54 26.7982C127.372 26.7982 127.789 26.3817 127.789 25.5488C127.789 24.7158 127.366 24.2994 126.515 24.2994H126.24V26.7947H126.54V26.7982ZM129.744 19.5737H131.028V27.9753H129.744V19.5737Z"
    fill="#1D1D1B" />
  <path
    d="M136.276 27.9753L134.717 24.8432L133.168 27.9753H131.716L134.032 23.5456L131.957 19.5737H133.409L134.717 22.2136L136.025 19.5737H137.477L135.402 23.5456L137.729 27.9753H136.276Z"
    fill="#1D1D1B" />
  <path
    d="M73.7209 30.9697H75.0667V36.0224L75.0185 36.9482H75.0667L77.6343 30.9732H79.1453V39.3747H77.7995V34.6456L77.8477 33.3962H77.7995L75.2319 39.3713H73.7209V30.9697Z"
    fill="#1D1D1B" />
  <path
    d="M85.8292 30.9697V39.3713H84.4835V35.3409H81.7713V39.3713H80.4255V30.9697H81.7713V34.1397H84.4835V30.9697H85.8292Z"
    fill="#1D1D1B" />
  <path
    d="M93.1088 38.1701V40.4486H91.9076V39.3678H87.743V40.4486H86.5417V38.1701H87.0924C87.2267 37.9395 87.3265 37.6469 87.3919 37.2958C87.4573 36.9448 87.5089 36.4595 87.5468 35.8434L87.8118 30.9697H92.3241V38.1701H93.1054H93.1088ZM90.9852 32.1675H88.9923L88.7893 35.8399C88.748 36.4629 88.7032 36.9517 88.6516 37.2993C88.6 37.6469 88.5174 37.936 88.4072 38.1701H90.9886V32.1675H90.9852Z"
    fill="#1D1D1B" />
  <path
    d="M93.959 39.3713V38.1701C94.2309 38.2423 94.4512 38.2768 94.6198 38.2768C94.8504 38.2768 95.0397 38.2148 95.1843 38.0978C95.3288 37.9773 95.4596 37.7674 95.5801 37.461L95.7591 36.993L93.2878 30.9697H94.7162L96.4199 35.2066H96.4681L98.1236 30.9697H99.5382L96.7194 37.8087C96.5438 38.2492 96.358 38.5865 96.1687 38.824C95.9759 39.0615 95.7625 39.2267 95.525 39.3231C95.2876 39.4195 95.0019 39.4676 94.668 39.4676C94.4512 39.4676 94.2171 39.4367 93.959 39.3713Z"
    fill="#1D1D1B" />
  <path
    d="M101.066 39.0239C100.619 38.7279 100.257 38.2563 99.9855 37.6127C99.7136 36.9691 99.5759 36.1534 99.5759 35.169C99.5759 34.1846 99.7274 33.3827 100.034 32.739C100.337 32.0954 100.729 31.6239 101.211 31.321C101.689 31.0216 102.202 30.8701 102.746 30.8701C103.513 30.8701 104.133 31.111 104.601 31.5963C105.069 32.0816 105.324 32.7907 105.362 33.7269H104.03C104.012 33.1658 103.885 32.7494 103.641 32.4775C103.396 32.2056 103.087 32.0679 102.711 32.0679C102.216 32.0679 101.792 32.3088 101.445 32.7872C101.097 33.2656 100.922 34.0607 100.922 35.1621C100.922 36.2635 101.087 37.0586 101.414 37.537C101.741 38.0154 102.144 38.2563 102.615 38.2563C103.599 38.2563 104.136 37.5404 104.222 36.1086H105.544C105.479 37.2203 105.172 38.0567 104.625 38.6177C104.078 39.1787 103.389 39.4575 102.567 39.4575C102.016 39.4575 101.514 39.3095 101.066 39.0135V39.0239Z"
    fill="#1D1D1B" />
  <path d="M111.791 32.1675H109.63V39.3679H108.284V32.1675H106.136V30.9663H111.788V32.1675H111.791Z" fill="#1D1D1B" />
  <path
    d="M112.7 30.9697H116C116.72 30.9697 117.281 31.159 117.687 31.5411C118.09 31.9197 118.293 32.46 118.293 33.1553C118.293 33.8506 118.09 34.3909 117.687 34.7695C117.284 35.1481 116.72 35.3409 116 35.3409H114.045V39.3713H112.7V30.9697ZM115.976 34.1638C116.623 34.1638 116.947 33.8265 116.947 33.1553C116.947 32.4841 116.623 32.1468 115.976 32.1468H114.045V34.1638H115.976Z"
    fill="#1D1D1B" />
  <path
    d="M119.205 30.9697H120.551V36.0224L120.502 36.9482H120.551L123.118 30.9732H124.629V39.3747H123.283V34.6456L123.332 33.3962H123.283L120.716 39.3713H119.205V30.9697Z"
    fill="#1D1D1B" />
  <path
    d="M125.91 30.9698H127.255V36.0224L127.207 36.9483H127.255L129.823 30.9732H131.334V39.3748H129.988V34.6457L130.036 33.3963H129.988L127.421 39.3714H125.91V30.9698ZM128.188 29.4106C128.195 29.538 128.236 29.6412 128.309 29.717C128.381 29.7927 128.484 29.8306 128.622 29.8306C128.887 29.8306 129.025 29.6894 129.042 29.4106H129.857C129.857 29.772 129.747 30.0474 129.527 30.2436C129.307 30.4398 129.004 30.5361 128.622 30.5361C128.24 30.5361 127.937 30.4398 127.717 30.2436C127.496 30.0474 127.386 29.7686 127.386 29.4106H128.192H128.188Z"
    fill="#1D1D1B" />
</svg>
